<svg xmlns="http://www.w3.org/2000/svg" xmlns:xlink="http://www.w3.org/1999/xlink" id="body_1" preserveAspectRatio="xMinYMin meet" viewBox="0 0 720 1040"><defs><clipPath id="1"><path clip-rule="evenodd" d="M0 780L0 0L0 0L540 0L540 0L540 780L540 780L0 780z" /></clipPath><clipPath id="2"><path clip-rule="evenodd" d="M0 779.9998L540 779.9998L540 779.9998L540 -0.0001831055L540 -0.0001831055L0 -0.0001831055z" /></clipPath><clipPath id="3"><path clip-rule="evenodd" d="M0 779.9999L540 779.9999L540 779.9999L540 -6.103516E-05L540 -6.103516E-05L0 -6.103516E-05z" /></clipPath><clipPath id="4"><path clip-rule="evenodd" d="M3.997E-06 779.9998L540 779.9998L540 779.9998L540 -0.0002441406L540 -0.0002441406L3.997E-06 -0.0002441406z" /></clipPath><clipPath id="5"><path clip-rule="evenodd" d="M0 779.9999L540 779.9999L540 779.9999L540 -6.103516E-05L540 -6.103516E-05L0 -6.103516E-05z" /></clipPath><clipPath id="6"><path clip-rule="evenodd" d="M9.509E-06 779.9998L540 779.9998L540 779.9998L540 -0.0002441406L540 -0.0002441406L9.509E-06 -0.0002441406z" /></clipPath><clipPath id="7"><path clip-rule="evenodd" d="M0 779.9999L540 779.9999L540 779.9999L540 -6.103516E-05L540 -6.103516E-05L0 -6.103516E-05z" /></clipPath><clipPath id="8"><path clip-rule="evenodd" d="M-1.515E-06 779.9998L540 779.9998L540 779.9998L540 -0.0002441406L540 -0.0002441406L-1.515E-06 -0.0002441406z" /></clipPath><clipPath id="9"><path clip-rule="evenodd" d="M8.047E-06 780L540 780L540 780L540 0L540 0L8.047E-06 0z" /></clipPath><clipPath id="10"><path clip-rule="evenodd" d="M8.047E-06 780L540 780L540 780L540 0L540 0L8.047E-06 0z" /></clipPath><clipPath id="11"><path clip-rule="evenodd" d="M8.047E-06 780L540 780L540 780L540 0L540 0L8.047E-06 0z" /></clipPath><clipPath id="12"><path clip-rule="evenodd" d="M8.047E-06 780L540 780L540 780L540 0L540 0L8.047E-06 0z" /></clipPath><clipPath id="13"><path clip-rule="evenodd" d="M8.047E-06 780L540 780L540 780L540 0L540 0L8.047E-06 0z" /></clipPath><clipPath id="14"><path clip-rule="evenodd" d="M8.047E-06 780L540 780L540 780L540 0L540 0L8.047E-06 0z" /></clipPath><clipPath id="15"><path clip-rule="evenodd" d="M8.047E-06 780L540 780L540 780L540 0L540 0L8.047E-06 0z" /></clipPath><clipPath id="16"><path clip-rule="evenodd" d="M8.047E-06 780L540 780L540 780L540 0L540 0L8.047E-06 0z" /></clipPath><clipPath id="17"><path clip-rule="evenodd" d="M8.047E-06 780L540 780L540 780L540 0L540 0L8.047E-06 0z" /></clipPath><clipPath id="18"><path clip-rule="evenodd" d="M8.047E-06 780L540 780L540 780L540 0L540 0L8.047E-06 0z" /></clipPath><clipPath id="19"><path clip-rule="evenodd" d="M8.047E-06 780L540 780L540 780L540 0L540 0L8.047E-06 0z" /></clipPath><clipPath id="20"><path clip-rule="evenodd" d="M8.047E-06 780L540 780L540 780L540 0L540 0L8.047E-06 0z" /></clipPath><clipPath id="21"><path clip-rule="evenodd" d="M8.047E-06 780L540 780L540 780L540 0L540 0L8.047E-06 0z" /></clipPath><clipPath id="22"><path clip-rule="evenodd" d="M8.047E-06 780L540 780L540 780L540 0L540 0L8.047E-06 0z" /></clipPath><clipPath id="23"><path clip-rule="evenodd" d="M8.047E-06 780L540 780L540 780L540 0L540 0L8.047E-06 0z" /></clipPath><clipPath id="24"><path clip-rule="evenodd" d="M8.047E-06 780L540 780L540 780L540 0L540 0L8.047E-06 0z" /></clipPath><clipPath id="25"><path clip-rule="evenodd" d="M8.047E-06 780L540 780L540 780L540 0L540 0L8.047E-06 0z" /></clipPath><clipPath id="26"><path clip-rule="evenodd" d="M8.047E-06 780L540 780L540 780L540 0L540 0L8.047E-06 0z" /></clipPath><clipPath id="27"><path clip-rule="evenodd" d="M8.047E-06 780L540 780L540 780L540 0L540 0L8.047E-06 0z" /></clipPath><clipPath id="28"><path clip-rule="evenodd" d="M8.047E-06 780L540 780L540 780L540 0L540 0L8.047E-06 0z" /></clipPath><clipPath id="29"><path clip-rule="evenodd" d="M8.047E-06 780L540 780L540 780L540 0L540 0L8.047E-06 0z" /></clipPath><clipPath id="30"><path clip-rule="evenodd" d="M8.047E-06 780L540 780L540 780L540 0L540 0L8.047E-06 0z" /></clipPath><clipPath id="31"><path clip-rule="evenodd" d="M8.047E-06 780L540 780L540 780L540 0L540 0L8.047E-06 0z" /></clipPath><clipPath id="32"><path clip-rule="evenodd" d="M8.047E-06 780L540 780L540 780L540 0L540 0L8.047E-06 0z" /></clipPath><clipPath id="33"><path clip-rule="evenodd" d="M8.047E-06 780L540 780L540 780L540 0L540 0L8.047E-06 0z" /></clipPath><clipPath id="34"><path clip-rule="evenodd" d="M8.047E-06 780L540 780L540 780L540 0L540 0L8.047E-06 0z" /></clipPath><clipPath id="35"><path clip-rule="evenodd" d="M8.047E-06 780L540 780L540 780L540 0L540 0L8.047E-06 0z" /></clipPath><clipPath id="36"><path clip-rule="evenodd" d="M8.047E-06 780L540 780L540 780L540 0L540 0L8.047E-06 0z" /></clipPath><clipPath id="37"><path clip-rule="evenodd" d="M8.047E-06 780L540 780L540 780L540 0L540 0L8.047E-06 0z" /></clipPath><clipPath id="38"><path clip-rule="evenodd" d="M8.047E-06 780L540 780L540 780L540 0L540 0L8.047E-06 0z" /></clipPath><clipPath id="39"><path clip-rule="evenodd" d="M8.047E-06 780L540 780L540 780L540 0L540 0L8.047E-06 0z" /></clipPath><clipPath id="40"><path clip-rule="evenodd" d="M8.047E-06 780L540 780L540 780L540 0L540 0L8.047E-06 0z" /></clipPath><clipPath id="41"><path clip-rule="evenodd" d="M8.047E-06 780L540 780L540 780L540 0L540 0L8.047E-06 0z" /></clipPath><clipPath id="42"><path clip-rule="evenodd" d="M8.047E-06 780L540 780L540 780L540 0L540 0L8.047E-06 0z" /></clipPath><clipPath id="43"><path clip-rule="evenodd" d="M8.047E-06 780L540 780L540 780L540 0L540 0L8.047E-06 0z" /></clipPath><clipPath id="44"><path clip-rule="evenodd" d="M8.047E-06 780L540 780L540 780L540 0L540 0L8.047E-06 0z" /></clipPath><clipPath id="45"><path clip-rule="evenodd" d="M8.047E-06 780L540 780L540 780L540 0L540 0L8.047E-06 0z" /></clipPath><clipPath id="46"><path clip-rule="evenodd" d="M8.047E-06 780L540 780L540 780L540 0L540 0L8.047E-06 0z" /></clipPath><clipPath id="47"><path clip-rule="evenodd" d="M0 779.9999L540 779.9999L540 779.9999L540 -6.103516E-05L540 -6.103516E-05L0 -6.103516E-05z" /></clipPath><clipPath id="48"><path clip-rule="evenodd" d="M-3.09E-07 779.9998L540 779.9998L540 779.9998L540 -0.0001831055L540 -0.0001831055L-3.09E-07 -0.0001831055z" /></clipPath><clipPath id="49"><path clip-rule="evenodd" d="M8.047E-06 780L540 780L540 780L540 0L540 0L8.047E-06 0z" /></clipPath><clipPath id="50"><path clip-rule="evenodd" d="M-1.3E-07 779.9998L540 779.9998L540 779.9998L540 -0.0002441406L540 -0.0002441406L-1.3E-07 -0.0002441406z" /></clipPath><clipPath id="51"><path clip-rule="evenodd" d="M8.047E-06 780L540 780L540 780L540 0L540 0L8.047E-06 0z" /></clipPath><clipPath id="52"><path clip-rule="evenodd" d="M8.047E-06 780L540 780L540 780L540 0L540 0L8.047E-06 0z" /></clipPath><clipPath id="53"><path clip-rule="evenodd" d="M8.047E-06 780L540 780L540 780L540 0L540 0L8.047E-06 0z" /></clipPath><clipPath id="54"><path clip-rule="evenodd" d="M8.047E-06 780L540 780L540 780L540 0L540 0L8.047E-06 0z" /></clipPath><clipPath id="55"><path clip-rule="evenodd" d="M8.047E-06 780L540 780L540 780L540 0L540 0L8.047E-06 0z" /></clipPath><clipPath id="56"><path clip-rule="evenodd" d="M8.047E-06 780L540 780L540 780L540 0L540 0L8.047E-06 0z" /></clipPath><clipPath id="57"><path clip-rule="evenodd" d="M8.047E-06 780L540 780L540 780L540 0L540 0L8.047E-06 0z" /></clipPath><clipPath id="58"><path clip-rule="evenodd" d="M8.047E-06 780L540 780L540 780L540 0L540 0L8.047E-06 0z" /></clipPath><clipPath id="59"><path clip-rule="evenodd" d="M-2.18E-07 779.9998L540 779.9998L540 779.9998L540 -0.0002441406L540 -0.0002441406L-2.18E-07 -0.0002441406z" /></clipPath><clipPath id="60"><path clip-rule="evenodd" d="M8.047E-06 780L540 780L540 780L540 0L540 0L8.047E-06 0z" /></clipPath><clipPath id="61"><path clip-rule="evenodd" d="M8.047E-06 780L540 780L540 780L540 0L540 0L8.047E-06 0z" /></clipPath><clipPath id="62"><path clip-rule="evenodd" d="M-1.48E-07 779.9996L540 779.9996L540 779.9996L540 -0.0003662109L540 -0.0003662109L-1.48E-07 -0.0003662109z" /></clipPath><clipPath id="63"><path clip-rule="evenodd" d="M8.047E-06 780L540 780L540 780L540 0L540 0L8.047E-06 0z" /></clipPath><clipPath id="64"><path clip-rule="evenodd" d="M-6.53E-07 779.9997L540 779.9997L540 779.9997L540 -0.0003051758L540 -0.0003051758L-6.53E-07 -0.0003051758z" /></clipPath><clipPath id="65"><path clip-rule="evenodd" d="M-1E-09 779.9998L540 779.9998L540 779.9998L540 -0.0002441406L540 -0.0002441406L-1E-09 -0.0002441406z" /></clipPath><clipPath id="66"><path clip-rule="evenodd" d="M8.047E-06 780L540 780L540 780L540 0L540 0L8.047E-06 0z" /></clipPath><clipPath id="67"><path clip-rule="evenodd" d="M8.047E-06 780L540 780L540 780L540 0L540 0L8.047E-06 0z" /></clipPath><clipPath id="68"><path clip-rule="evenodd" d="M8.047E-06 780L540 780L540 780L540 0L540 0L8.047E-06 0z" /></clipPath><clipPath id="69"><path clip-rule="evenodd" d="M8.047E-06 780L540 780L540 780L540 0L540 0L8.047E-06 0z" /></clipPath><clipPath id="70"><path clip-rule="evenodd" d="M8.047E-06 780L540 780L540 780L540 0L540 0L8.047E-06 0z" /></clipPath><clipPath id="71"><path clip-rule="evenodd" d="M8.047E-06 780L540 780L540 780L540 0L540 0L8.047E-06 0z" /></clipPath><clipPath id="72"><path clip-rule="evenodd" d="M8.047E-06 780L540 780L540 780L540 0L540 0L8.047E-06 0z" /></clipPath><clipPath id="73"><path clip-rule="evenodd" d="M8.047E-06 780L540 780L540 780L540 0L540 0L8.047E-06 0z" /></clipPath><clipPath id="74"><path clip-rule="evenodd" d="M8.047E-06 780L540 780L540 780L540 0L540 0L8.047E-06 0z" /></clipPath><clipPath id="75"><path clip-rule="evenodd" d="M8.047E-06 780L540 780L540 780L540 0L540 0L8.047E-06 0z" /></clipPath><clipPath id="76"><path clip-rule="evenodd" d="M8.047E-06 780L540 780L540 780L540 0L540 0L8.047E-06 0z" /></clipPath><clipPath id="77"><path clip-rule="evenodd" d="M8.047E-06 780L540 780L540 780L540 0L540 0L8.047E-06 0z" /></clipPath><clipPath id="78"><path clip-rule="evenodd" d="M8.047E-06 780L540 780L540 780L540 0L540 0L8.047E-06 0z" /></clipPath><clipPath id="79"><path clip-rule="evenodd" d="M8.047E-06 780L540 780L540 780L540 0L540 0L8.047E-06 0z" /></clipPath><clipPath id="80"><path clip-rule="evenodd" d="M8.047E-06 780L540 780L540 780L540 0L540 0L8.047E-06 0z" /></clipPath><clipPath id="81"><path clip-rule="evenodd" d="M8.047E-06 780L540 780L540 780L540 0L540 0L8.047E-06 0z" /></clipPath><clipPath id="82"><path clip-rule="evenodd" d="M8.047E-06 780L540 780L540 780L540 0L540 0L8.047E-06 0z" /></clipPath><clipPath id="83"><path clip-rule="evenodd" d="M8.047E-06 780L540 780L540 780L540 0L540 0L8.047E-06 0z" /></clipPath><clipPath id="84"><path clip-rule="evenodd" d="M8.047E-06 780L540 780L540 780L540 0L540 0L8.047E-06 0z" /></clipPath><clipPath id="85"><path clip-rule="evenodd" d="M8.047E-06 780L540 780L540 780L540 0L540 0L8.047E-06 0z" /></clipPath><clipPath id="86"><path clip-rule="evenodd" d="M8.047E-06 780L540 780L540 780L540 0L540 0L8.047E-06 0z" /></clipPath><clipPath id="87"><path clip-rule="evenodd" d="M8.047E-06 780L540 780L540 780L540 0L540 0L8.047E-06 0z" /></clipPath><clipPath id="88"><path clip-rule="evenodd" d="M8.047E-06 780L540 780L540 780L540 0L540 0L8.047E-06 0z" /></clipPath><clipPath id="89"><path clip-rule="evenodd" d="M8.047E-06 780L540 780L540 780L540 0L540 0L8.047E-06 0z" /></clipPath><clipPath id="90"><path clip-rule="evenodd" d="M8.047E-06 780L540 780L540 780L540 0L540 0L8.047E-06 0z" /></clipPath><clipPath id="91"><path clip-rule="evenodd" d="M8.047E-06 780L540 780L540 780L540 0L540 0L8.047E-06 0z" /></clipPath><clipPath id="92"><path clip-rule="evenodd" d="M8.047E-06 780L540 780L540 780L540 0L540 0L8.047E-06 0z" /></clipPath><clipPath id="93"><path clip-rule="evenodd" d="M8.047E-06 780L540 780L540 780L540 0L540 0L8.047E-06 0z" /></clipPath><clipPath id="94"><path clip-rule="evenodd" d="M8.047E-06 780L540 780L540 780L540 0L540 0L8.047E-06 0z" /></clipPath><clipPath id="95"><path clip-rule="evenodd" d="M8.047E-06 780L540 780L540 780L540 0L540 0L8.047E-06 0z" /></clipPath><clipPath id="96"><path clip-rule="evenodd" d="M8.047E-06 780L540 780L540 780L540 0L540 0L8.047E-06 0z" /></clipPath><clipPath id="97"><path clip-rule="evenodd" d="M8.047E-06 780L540 780L540 780L540 0L540 0L8.047E-06 0z" /></clipPath><clipPath id="98"><path clip-rule="evenodd" d="M8.047E-06 780L540 780L540 780L540 0L540 0L8.047E-06 0z" /></clipPath><clipPath id="99"><path clip-rule="evenodd" d="M8.047E-06 780L540 780L540 780L540 0L540 0L8.047E-06 0z" /></clipPath><clipPath id="100"><path clip-rule="evenodd" d="M8.047E-06 780L540 780L540 780L540 0L540 0L8.047E-06 0z" /></clipPath><clipPath id="101"><path clip-rule="evenodd" d="M8.047E-06 780L540 780L540 780L540 0L540 0L8.047E-06 0z" /></clipPath><clipPath id="102"><path clip-rule="evenodd" d="M8.047E-06 780L540 780L540 780L540 0L540 0L8.047E-06 0z" /></clipPath><clipPath id="103"><path clip-rule="evenodd" d="M8.047E-06 780L540 780L540 780L540 0L540 0L8.047E-06 0z" /></clipPath><clipPath id="104"><path clip-rule="evenodd" d="M8.047E-06 780L540 780L540 780L540 0L540 0L8.047E-06 0z" /></clipPath><clipPath id="105"><path clip-rule="evenodd" d="M8.047E-06 780L540 780L540 780L540 0L540 0L8.047E-06 0z" /></clipPath><clipPath id="106"><path clip-rule="evenodd" d="M8.047E-06 780L540 780L540 780L540 0L540 0L8.047E-06 0z" /></clipPath><clipPath id="107"><path clip-rule="evenodd" d="M8.047E-06 780L540 780L540 780L540 0L540 0L8.047E-06 0z" /></clipPath><clipPath id="108"><path clip-rule="evenodd" d="M8.047E-06 780L540 780L540 780L540 0L540 0L8.047E-06 0z" /></clipPath><clipPath id="109"><path clip-rule="evenodd" d="M8.047E-06 780L540 780L540 780L540 0L540 0L8.047E-06 0z" /></clipPath><clipPath id="110"><path clip-rule="evenodd" d="M8.047E-06 780L540 780L540 780L540 0L540 0L8.047E-06 0z" /></clipPath><clipPath id="111"><path clip-rule="evenodd" d="M8.047E-06 780L540 780L540 780L540 0L540 0L8.047E-06 0z" /></clipPath><clipPath id="112"><path clip-rule="evenodd" d="M8.047E-06 780L540 780L540 780L540 0L540 0L8.047E-06 0z" /></clipPath><clipPath id="113"><path clip-rule="evenodd" d="M8.047E-06 780L540 780L540 780L540 0L540 0L8.047E-06 0z" /></clipPath><clipPath id="114"><path clip-rule="evenodd" d="M8.047E-06 780L540 780L540 780L540 0L540 0L8.047E-06 0z" /></clipPath><clipPath id="115"><path clip-rule="evenodd" d="M8.047E-06 780L540 780L540 780L540 0L540 0L8.047E-06 0z" /></clipPath><clipPath id="116"><path clip-rule="evenodd" d="M8.047E-06 780L540 780L540 780L540 0L540 0L8.047E-06 0z" /></clipPath><clipPath id="117"><path clip-rule="evenodd" d="M8.047E-06 780L540 780L540 780L540 0L540 0L8.047E-06 0z" /></clipPath><clipPath id="118"><path clip-rule="evenodd" d="M8.047E-06 780L540 780L540 780L540 0L540 0L8.047E-06 0z" /></clipPath><clipPath id="119"><path clip-rule="evenodd" d="M8.047E-06 780L540 780L540 780L540 0L540 0L8.047E-06 0z" /></clipPath><clipPath id="120"><path clip-rule="evenodd" d="M8.047E-06 780L540 780L540 780L540 0L540 0L8.047E-06 0z" /></clipPath><clipPath id="121"><path clip-rule="evenodd" d="M8.047E-06 780L540 780L540 780L540 0L540 0L8.047E-06 0z" /></clipPath><clipPath id="122"><path clip-rule="evenodd" d="M8.047E-06 780L540 780L540 780L540 0L540 0L8.047E-06 0z" /></clipPath><clipPath id="123"><path clip-rule="evenodd" d="M8.047E-06 780L540 780L540 780L540 0L540 0L8.047E-06 0z" /></clipPath><clipPath id="124"><path clip-rule="evenodd" d="M8.047E-06 780L540 780L540 780L540 0L540 0L8.047E-06 0z" /></clipPath><clipPath id="125"><path clip-rule="evenodd" d="M8.047E-06 780L540 780L540 780L540 0L540 0L8.047E-06 0z" /></clipPath><clipPath id="126"><path clip-rule="evenodd" d="M8.047E-06 780L540 780L540 780L540 0L540 0L8.047E-06 0z" /></clipPath><clipPath id="127"><path clip-rule="evenodd" d="M8.047E-06 780L540 780L540 780L540 0L540 0L8.047E-06 0z" /></clipPath><clipPath id="128"><path clip-rule="evenodd" d="M8.047E-06 780L540 780L540 780L540 0L540 0L8.047E-06 0z" /></clipPath><clipPath id="129"><path clip-rule="evenodd" d="M8.047E-06 780L540 780L540 780L540 0L540 0L8.047E-06 0z" /></clipPath><clipPath id="130"><path clip-rule="evenodd" d="M8.047E-06 780L540 780L540 780L540 0L540 0L8.047E-06 0z" /></clipPath><clipPath id="131"><path clip-rule="evenodd" d="M8.047E-06 780L540 780L540 780L540 0L540 0L8.047E-06 0z" /></clipPath><clipPath id="132"><path clip-rule="evenodd" d="M8.047E-06 780L540 780L540 780L540 0L540 0L8.047E-06 0z" /></clipPath><clipPath id="133"><path clip-rule="evenodd" d="M8.047E-06 780L540 780L540 780L540 0L540 0L8.047E-06 0z" /></clipPath><clipPath id="134"><path clip-rule="evenodd" d="M8.047E-06 780L540 780L540 780L540 0L540 0L8.047E-06 0z" /></clipPath><clipPath id="135"><path clip-rule="evenodd" d="M8.047E-06 780L540 780L540 780L540 0L540 0L8.047E-06 0z" /></clipPath><clipPath id="136"><path clip-rule="evenodd" d="M8.047E-06 780L540 780L540 780L540 0L540 0L8.047E-06 0z" /></clipPath><clipPath id="137"><path clip-rule="evenodd" d="M8.047E-06 780L540 780L540 780L540 0L540 0L8.047E-06 0z" /></clipPath><clipPath id="138"><path clip-rule="evenodd" d="M8.047E-06 780L540 780L540 780L540 0L540 0L8.047E-06 0z" /></clipPath><clipPath id="139"><path clip-rule="evenodd" d="M8.047E-06 780L540 780L540 780L540 0L540 0L8.047E-06 0z" /></clipPath><clipPath id="140"><path clip-rule="evenodd" d="M8.047E-06 780L540 780L540 780L540 0L540 0L8.047E-06 0z" /></clipPath><clipPath id="141"><path clip-rule="evenodd" d="M8.047E-06 780L540 780L540 780L540 0L540 0L8.047E-06 0z" /></clipPath><clipPath id="142"><path clip-rule="evenodd" d="M8.047E-06 780L540 780L540 780L540 0L540 0L8.047E-06 0z" /></clipPath><clipPath id="143"><path clip-rule="evenodd" d="M8.047E-06 780L540 780L540 780L540 0L540 0L8.047E-06 0z" /></clipPath><clipPath id="144"><path clip-rule="evenodd" d="M8.047E-06 780L540 780L540 780L540 0L540 0L8.047E-06 0z" /></clipPath><clipPath id="145"><path clip-rule="evenodd" d="M8.047E-06 780L540 780L540 780L540 0L540 0L8.047E-06 0z" /></clipPath><clipPath id="146"><path clip-rule="evenodd" d="M-1.3E-07 779.9998L540 779.9998L540 779.9998L540 -0.0002441406L540 -0.0002441406L-1.3E-07 -0.0002441406z" /></clipPath><clipPath id="147"><path clip-rule="evenodd" d="M8.047E-06 780L540 780L540 780L540 0L540 0L8.047E-06 0z" /></clipPath><clipPath id="148"><path clip-rule="evenodd" d="M8.047E-06 780L540 780L540 780L540 0L540 0L8.047E-06 0z" /></clipPath><clipPath id="149"><path clip-rule="evenodd" d="M8.047E-06 780L540 780L540 780L540 0L540 0L8.047E-06 0z" /></clipPath><clipPath id="150"><path clip-rule="evenodd" d="M8.047E-06 780L540 780L540 780L540 0L540 0L8.047E-06 0z" /></clipPath><clipPath id="151"><path clip-rule="evenodd" d="M8.047E-06 780L540 780L540 780L540 0L540 0L8.047E-06 0z" /></clipPath><clipPath id="152"><path clip-rule="evenodd" d="M8.047E-06 780L540 780L540 780L540 0L540 0L8.047E-06 0z" /></clipPath><clipPath id="153"><path clip-rule="evenodd" d="M8.047E-06 780L540 780L540 780L540 0L540 0L8.047E-06 0z" /></clipPath><clipPath id="154"><path clip-rule="evenodd" d="M8.047E-06 780L540 780L540 780L540 0L540 0L8.047E-06 0z" /></clipPath><clipPath id="155"><path clip-rule="evenodd" d="M8.047E-06 780L540 780L540 780L540 0L540 0L8.047E-06 0z" /></clipPath><clipPath id="156"><path clip-rule="evenodd" d="M8.047E-06 780L540 780L540 780L540 0L540 0L8.047E-06 0z" /></clipPath><clipPath id="157"><path clip-rule="evenodd" d="M8.047E-06 780L540 780L540 780L540 0L540 0L8.047E-06 0z" /></clipPath><clipPath id="158"><path clip-rule="evenodd" d="M8.047E-06 780L540 780L540 780L540 0L540 0L8.047E-06 0z" /></clipPath><clipPath id="159"><path clip-rule="evenodd" d="M-2.18E-07 779.9998L540 779.9998L540 779.9998L540 -0.0002441406L540 -0.0002441406L-2.18E-07 -0.0002441406z" /></clipPath><clipPath id="160"><path clip-rule="evenodd" d="M8.047E-06 780L540 780L540 780L540 0L540 0L8.047E-06 0z" /></clipPath><clipPath id="161"><path clip-rule="evenodd" d="M8.047E-06 780L540 780L540 780L540 0L540 0L8.047E-06 0z" /></clipPath><clipPath id="162"><path clip-rule="evenodd" d="M8.047E-06 780L540 780L540 780L540 0L540 0L8.047E-06 0z" /></clipPath><clipPath id="163"><path clip-rule="evenodd" d="M-3.09E-07 779.9998L540 779.9998L540 779.9998L540 -0.0002441406L540 -0.0002441406L-3.09E-07 -0.0002441406z" /></clipPath><clipPath id="164"><path clip-rule="evenodd" d="M8.047E-06 780L540 780L540 780L540 0L540 0L8.047E-06 0z" /></clipPath><clipPath id="165"><path clip-rule="evenodd" d="M8.047E-06 780L540 780L540 780L540 0L540 0L8.047E-06 0z" /></clipPath><clipPath id="166"><path clip-rule="evenodd" d="M8.047E-06 780L540 780L540 780L540 0L540 0L8.047E-06 0z" /></clipPath><clipPath id="167"><path clip-rule="evenodd" d="M8.047E-06 780L540 780L540 780L540 0L540 0L8.047E-06 0z" /></clipPath><clipPath id="168"><path clip-rule="evenodd" d="M8.047E-06 780L540 780L540 780L540 0L540 0L8.047E-06 0z" /></clipPath><clipPath id="169"><path clip-rule="evenodd" d="M8.047E-06 780L540 780L540 780L540 0L540 0L8.047E-06 0z" /></clipPath><clipPath id="170"><path clip-rule="evenodd" d="M-2.41E-07 779.9998L540 779.9998L540 779.9998L540 -0.0002441406L540 -0.0002441406L-2.41E-07 -0.0002441406z" /></clipPath><clipPath id="171"><path clip-rule="evenodd" d="M-2.41E-07 779.9998L540 779.9998L540 779.9998L540 -0.0002441406L540 -0.0002441406L-2.41E-07 -0.0002441406z" /></clipPath><clipPath id="172"><path clip-rule="evenodd" d="M-2.41E-07 779.9998L540 779.9998L540 779.9998L540 -0.0002441406L540 -0.0002441406L-2.41E-07 -0.0002441406z" /></clipPath><clipPath id="173"><path clip-rule="evenodd" d="M-2.41E-07 779.9998L540 779.9998L540 779.9998L540 -0.0002441406L540 -0.0002441406L-2.41E-07 -0.0002441406z" /></clipPath><clipPath id="174"><path clip-rule="evenodd" d="M8.047E-06 780L540 780L540 780L540 0L540 0L8.047E-06 0z" /></clipPath><clipPath id="175"><path clip-rule="evenodd" d="M8.047E-06 780L540 780L540 780L540 0L540 0L8.047E-06 0z" /></clipPath><clipPath id="176"><path clip-rule="evenodd" d="M8.047E-06 780L540 780L540 780L540 0L540 0L8.047E-06 0z" /></clipPath><clipPath id="177"><path clip-rule="evenodd" d="M8.047E-06 780L540 780L540 780L540 0L540 0L8.047E-06 0z" /></clipPath><clipPath id="178"><path clip-rule="evenodd" d="M8.047E-06 780L540 780L540 780L540 0L540 0L8.047E-06 0z" /></clipPath><clipPath id="179"><path clip-rule="evenodd" d="M8.047E-06 780L540 780L540 780L540 0L540 0L8.047E-06 0z" /></clipPath><clipPath id="180"><path clip-rule="evenodd" d="M8.047E-06 780L540 780L540 780L540 0L540 0L8.047E-06 0z" /></clipPath><clipPath id="181"><path clip-rule="evenodd" d="M8.047E-06 780L540 780L540 780L540 0L540 0L8.047E-06 0z" /></clipPath><clipPath id="182"><path clip-rule="evenodd" d="M8.047E-06 780L540 780L540 780L540 0L540 0L8.047E-06 0z" /></clipPath><clipPath id="183"><path clip-rule="evenodd" d="M8.047E-06 780L540 780L540 780L540 0L540 0L8.047E-06 0z" /></clipPath><clipPath id="184"><path clip-rule="evenodd" d="M8.047E-06 780L540 780L540 780L540 0L540 0L8.047E-06 0z" /></clipPath><clipPath id="185"><path clip-rule="evenodd" d="M8.047E-06 780L540 780L540 780L540 0L540 0L8.047E-06 0z" /></clipPath><clipPath id="186"><path clip-rule="evenodd" d="M8.047E-06 780L540 780L540 780L540 0L540 0L8.047E-06 0z" /></clipPath><clipPath id="187"><path clip-rule="evenodd" d="M8.047E-06 780L540 780L540 780L540 0L540 0L8.047E-06 0z" /></clipPath><clipPath id="188"><path clip-rule="evenodd" d="M8.047E-06 780L540 780L540 780L540 0L540 0L8.047E-06 0z" /></clipPath><clipPath id="189"><path clip-rule="evenodd" d="M8.047E-06 780L540 780L540 780L540 0L540 0L8.047E-06 0z" /></clipPath><clipPath id="190"><path clip-rule="evenodd" d="M8.047E-06 780L540 780L540 780L540 0L540 0L8.047E-06 0z" /></clipPath><clipPath id="191"><path clip-rule="evenodd" d="M8.047E-06 780L540 780L540 780L540 0L540 0L8.047E-06 0z" /></clipPath><clipPath id="192"><path clip-rule="evenodd" d="M8.047E-06 780L540 780L540 780L540 0L540 0L8.047E-06 0z" /></clipPath><clipPath id="193"><path clip-rule="evenodd" d="M8.047E-06 780L540 780L540 780L540 0L540 0L8.047E-06 0z" /></clipPath><clipPath id="194"><path clip-rule="evenodd" d="M8.047E-06 780L540 780L540 780L540 0L540 0L8.047E-06 0z" /></clipPath><clipPath id="195"><path clip-rule="evenodd" d="M8.047E-06 780L540 780L540 780L540 0L540 0L8.047E-06 0z" /></clipPath><clipPath id="196"><path clip-rule="evenodd" d="M8.047E-06 780L540 780L540 780L540 0L540 0L8.047E-06 0z" /></clipPath><clipPath id="197"><path clip-rule="evenodd" d="M8.047E-06 780L540 780L540 780L540 0L540 0L8.047E-06 0z" /></clipPath><clipPath id="198"><path clip-rule="evenodd" d="M8.047E-06 780L540 780L540 780L540 0L540 0L8.047E-06 0z" /></clipPath><clipPath id="199"><path clip-rule="evenodd" d="M8.047E-06 780L540 780L540 780L540 0L540 0L8.047E-06 0z" /></clipPath><clipPath id="200"><path clip-rule="evenodd" d="M8.047E-06 780L540 780L540 780L540 0L540 0L8.047E-06 0z" /></clipPath><clipPath id="201"><path clip-rule="evenodd" d="M8.047E-06 780L540 780L540 780L540 0L540 0L8.047E-06 0z" /></clipPath><clipPath id="202"><path clip-rule="evenodd" d="M8.047E-06 780L540 780L540 780L540 0L540 0L8.047E-06 0z" /></clipPath><clipPath id="203"><path clip-rule="evenodd" d="M8.047E-06 780L540 780L540 780L540 0L540 0L8.047E-06 0z" /></clipPath><clipPath id="204"><path clip-rule="evenodd" d="M8.047E-06 780L540 780L540 780L540 0L540 0L8.047E-06 0z" /></clipPath><clipPath id="205"><path clip-rule="evenodd" d="M8.047E-06 780L540 780L540 780L540 0L540 0L8.047E-06 0z" /></clipPath><clipPath id="206"><path clip-rule="evenodd" d="M8.047E-06 780L540 780L540 780L540 0L540 0L8.047E-06 0z" /></clipPath><clipPath id="207"><path clip-rule="evenodd" d="M8.047E-06 780L540 780L540 780L540 0L540 0L8.047E-06 0z" /></clipPath><clipPath id="208"><path clip-rule="evenodd" d="M8.047E-06 780L540 780L540 780L540 0L540 0L8.047E-06 0z" /></clipPath><clipPath id="209"><path clip-rule="evenodd" d="M8.047E-06 780L540 780L540 780L540 0L540 0L8.047E-06 0z" /></clipPath><clipPath id="210"><path clip-rule="evenodd" d="M8.047E-06 780L540 780L540 780L540 0L540 0L8.047E-06 0z" /></clipPath><clipPath id="211"><path clip-rule="evenodd" d="M8.047E-06 780L540 780L540 780L540 0L540 0L8.047E-06 0z" /></clipPath><clipPath id="212"><path clip-rule="evenodd" d="M8.047E-06 780L540 780L540 780L540 0L540 0L8.047E-06 0z" /></clipPath><clipPath id="213"><path clip-rule="evenodd" d="M8.047E-06 780L540 780L540 780L540 0L540 0L8.047E-06 0z" /></clipPath><clipPath id="214"><path clip-rule="evenodd" d="M8.047E-06 780L540 780L540 780L540 0L540 0L8.047E-06 0z" /></clipPath><clipPath id="215"><path clip-rule="evenodd" d="M8.047E-06 780L540 780L540 780L540 0L540 0L8.047E-06 0z" /></clipPath><clipPath id="216"><path clip-rule="evenodd" d="M8.047E-06 780L540 780L540 780L540 0L540 0L8.047E-06 0z" /></clipPath><clipPath id="217"><path clip-rule="evenodd" d="M8.047E-06 780L540 780L540 780L540 0L540 0L8.047E-06 0z" /></clipPath><clipPath id="218"><path clip-rule="evenodd" d="M8.047E-06 780L540 780L540 780L540 0L540 0L8.047E-06 0z" /></clipPath><clipPath id="219"><path clip-rule="evenodd" d="M8.047E-06 780L540 780L540 780L540 0L540 0L8.047E-06 0z" /></clipPath><clipPath id="220"><path clip-rule="evenodd" d="M8.047E-06 780L540 780L540 780L540 0L540 0L8.047E-06 0z" /></clipPath><clipPath id="221"><path clip-rule="evenodd" d="M8.047E-06 780L540 780L540 780L540 0L540 0L8.047E-06 0z" /></clipPath><clipPath id="222"><path clip-rule="evenodd" d="M8.047E-06 780L540 780L540 780L540 0L540 0L8.047E-06 0z" /></clipPath><clipPath id="223"><path clip-rule="evenodd" d="M8.047E-06 780L540 780L540 780L540 0L540 0L8.047E-06 0z" /></clipPath><clipPath id="224"><path clip-rule="evenodd" d="M8.047E-06 780L540 780L540 780L540 0L540 0L8.047E-06 0z" /></clipPath><clipPath id="225"><path clip-rule="evenodd" d="M8.047E-06 780L540 780L540 780L540 0L540 0L8.047E-06 0z" /></clipPath><clipPath id="226"><path clip-rule="evenodd" d="M8.047E-06 780L540 780L540 780L540 0L540 0L8.047E-06 0z" /></clipPath><clipPath id="227"><path clip-rule="evenodd" d="M8.047E-06 780L540 780L540 780L540 0L540 0L8.047E-06 0z" /></clipPath><clipPath id="228"><path clip-rule="evenodd" d="M8.047E-06 780L540 780L540 780L540 0L540 0L8.047E-06 0z" /></clipPath><clipPath id="229"><path clip-rule="evenodd" d="M8.047E-06 780L540 780L540 780L540 0L540 0L8.047E-06 0z" /></clipPath><clipPath id="230"><path clip-rule="evenodd" d="M8.047E-06 780L540 780L540 780L540 0L540 0L8.047E-06 0z" /></clipPath><clipPath id="231"><path clip-rule="evenodd" d="M8.047E-06 780L540 780L540 780L540 0L540 0L8.047E-06 0z" /></clipPath><clipPath id="232"><path clip-rule="evenodd" d="M8.047E-06 780L540 780L540 780L540 0L540 0L8.047E-06 0z" /></clipPath><clipPath id="233"><path clip-rule="evenodd" d="M8.047E-06 780L540 780L540 780L540 0L540 0L8.047E-06 0z" /></clipPath><clipPath id="234"><path clip-rule="evenodd" d="M8.047E-06 780L540 780L540 780L540 0L540 0L8.047E-06 0z" /></clipPath><clipPath id="235"><path clip-rule="evenodd" d="M8.047E-06 780L540 780L540 780L540 0L540 0L8.047E-06 0z" /></clipPath><clipPath id="236"><path clip-rule="evenodd" d="M8.047E-06 780L540 780L540 780L540 0L540 0L8.047E-06 0z" /></clipPath><clipPath id="237"><path clip-rule="evenodd" d="M8.047E-06 780L540 780L540 780L540 0L540 0L8.047E-06 0z" /></clipPath><clipPath id="238"><path clip-rule="evenodd" d="M8.047E-06 780L540 780L540 780L540 0L540 0L8.047E-06 0z" /></clipPath><clipPath id="239"><path clip-rule="evenodd" d="M8.047E-06 780L540 780L540 780L540 0L540 0L8.047E-06 0z" /></clipPath><clipPath id="240"><path clip-rule="evenodd" d="M8.047E-06 780L540 780L540 780L540 0L540 0L8.047E-06 0z" /></clipPath><clipPath id="241"><path clip-rule="evenodd" d="M8.047E-06 780L540 780L540 780L540 0L540 0L8.047E-06 0z" /></clipPath><clipPath id="242"><path clip-rule="evenodd" d="M8.047E-06 780L540 780L540 780L540 0L540 0L8.047E-06 0z" /></clipPath><clipPath id="243"><path clip-rule="evenodd" d="M8.047E-06 780L540 780L540 780L540 0L540 0L8.047E-06 0z" /></clipPath><clipPath id="244"><path clip-rule="evenodd" d="M8.047E-06 780L540 780L540 780L540 0L540 0L8.047E-06 0z" /></clipPath><clipPath id="245"><path clip-rule="evenodd" d="M8.047E-06 780L540 780L540 780L540 0L540 0L8.047E-06 0z" /></clipPath><clipPath id="246"><path clip-rule="evenodd" d="M8.047E-06 780L540 780L540 780L540 0L540 0L8.047E-06 0z" /></clipPath><clipPath id="247"><path clip-rule="evenodd" d="M8.047E-06 780L540 780L540 780L540 0L540 0L8.047E-06 0z" /></clipPath><clipPath id="248"><path clip-rule="evenodd" d="M8.047E-06 780L540 780L540 780L540 0L540 0L8.047E-06 0z" /></clipPath><clipPath id="249"><path clip-rule="evenodd" d="M8.047E-06 780L540 780L540 780L540 0L540 0L8.047E-06 0z" /></clipPath><clipPath id="250"><path clip-rule="evenodd" d="M8.047E-06 780L540 780L540 780L540 0L540 0L8.047E-06 0z" /></clipPath><clipPath id="251"><path clip-rule="evenodd" d="M8.047E-06 780L540 780L540 780L540 0L540 0L8.047E-06 0z" /></clipPath><clipPath id="252"><path clip-rule="evenodd" d="M8.047E-06 780L540 780L540 780L540 0L540 0L8.047E-06 0z" /></clipPath><clipPath id="253"><path clip-rule="evenodd" d="M8.047E-06 780L540 780L540 780L540 0L540 0L8.047E-06 0z" /></clipPath><clipPath id="254"><path clip-rule="evenodd" d="M8.047E-06 780L540 780L540 780L540 0L540 0L8.047E-06 0z" /></clipPath><clipPath id="255"><path clip-rule="evenodd" d="M8.047E-06 780L540 780L540 780L540 0L540 0L8.047E-06 0z" /></clipPath><clipPath id="256"><path clip-rule="evenodd" d="M8.047E-06 780L540 780L540 780L540 0L540 0L8.047E-06 0z" /></clipPath><clipPath id="257"><path clip-rule="evenodd" d="M8.047E-06 780L540 780L540 780L540 0L540 0L8.047E-06 0z" /></clipPath><clipPath id="258"><path clip-rule="evenodd" d="M8.047E-06 780L540 780L540 780L540 0L540 0L8.047E-06 0z" /></clipPath><clipPath id="259"><path clip-rule="evenodd" d="M8.047E-06 780L540 780L540 780L540 0L540 0L8.047E-06 0z" /></clipPath><clipPath id="260"><path clip-rule="evenodd" d="M8.047E-06 780L540 780L540 780L540 0L540 0L8.047E-06 0z" /></clipPath><clipPath id="261"><path clip-rule="evenodd" d="M8.047E-06 780L540 780L540 780L540 0L540 0L8.047E-06 0z" /></clipPath><clipPath id="262"><path clip-rule="evenodd" d="M8.047E-06 780L540 780L540 780L540 0L540 0L8.047E-06 0z" /></clipPath><clipPath id="263"><path clip-rule="evenodd" d="M8.047E-06 780L540 780L540 780L540 0L540 0L8.047E-06 0z" /></clipPath><clipPath id="264"><path clip-rule="evenodd" d="M8.047E-06 780L540 780L540 780L540 0L540 0L8.047E-06 0z" /></clipPath><clipPath id="265"><path clip-rule="evenodd" d="M8.047E-06 780L540 780L540 780L540 0L540 0L8.047E-06 0z" /></clipPath><clipPath id="266"><path clip-rule="evenodd" d="M8.047E-06 780L540 780L540 780L540 0L540 0L8.047E-06 0z" /></clipPath><clipPath id="267"><path clip-rule="evenodd" d="M8.047E-06 780L540 780L540 780L540 0L540 0L8.047E-06 0z" /></clipPath><clipPath id="268"><path clip-rule="evenodd" d="M8.047E-06 780L540 780L540 780L540 0L540 0L8.047E-06 0z" /></clipPath><clipPath id="269"><path clip-rule="evenodd" d="M8.047E-06 780L540 780L540 780L540 0L540 0L8.047E-06 0z" /></clipPath><clipPath id="270"><path clip-rule="evenodd" d="M8.047E-06 780L540 780L540 780L540 0L540 0L8.047E-06 0z" /></clipPath><clipPath id="271"><path clip-rule="evenodd" d="M8.047E-06 780L540 780L540 780L540 0L540 0L8.047E-06 0z" /></clipPath><clipPath id="272"><path clip-rule="evenodd" d="M8.047E-06 780L540 780L540 780L540 0L540 0L8.047E-06 0z" /></clipPath><clipPath id="273"><path clip-rule="evenodd" d="M8.047E-06 780L540 780L540 780L540 0L540 0L8.047E-06 0z" /></clipPath><clipPath id="274"><path clip-rule="evenodd" d="M8.047E-06 780L540 780L540 780L540 0L540 0L8.047E-06 0z" /></clipPath></defs><g transform="matrix(1.333333 0 0 1.333333 0 0)"><g clip-path="url(#1)"><g clip-path="url(#2)"><path transform="matrix(1 0 0 -1 0 780)" d="M0 6.1035E-05L540 6.1035E-05L540 6.1035E-05L540 780.0001L540 780.0001L0 780.0001z" stroke="none" fill="#F2F2F2" fill-rule="evenodd" /></g><g clip-path="url(#3)"><g transform="matrix(1.441798 0 0 1.438571 166.08 27.23999)"><g transform="matrix(1 0 0 1 0 0)"><image x="0" y="0" xlink:href="img_01.png" width="267" height="252" /></g></g></g><g clip-path="url(#4)"><path transform="matrix(1 0 0 -1 0 780)" d="M177.24 740.64L482.39 740.64L482.39 740.64L482.28 739.55C 482.28 731.31 488.96 724.63 497.19 724.63C 505.43 724.63 512.11 731.31 512.11 739.55L512.11 739.55L512 740.64L512 740.64L540.12 740.64L540.12 740.64L540.12 400.44L540.12 400.44L177.24 400.44L177.24 400.44L177.24 740.64z" stroke="none" fill="#F9F9F9" fill-rule="evenodd" /></g><g clip-path="url(#5)"><g transform="matrix(1.440899 0 0 1.437851 166.32 282.12)"><g transform="matrix(1 0 0 1 0 0)"><image x="0" y="0" xlink:href="img_02.png" width="267" height="335" /></g></g></g><g clip-path="url(#6)"><path transform="matrix(1 0 0 -1 0 780)" d="M177.48 485.76L482.63 485.76L482.63 485.76L482.52 484.67C 482.52 476.44 489.2 469.76 497.43 469.76C 505.67 469.76 512.35 476.44 512.35 484.67L512.35 484.67L512.24 485.76L512.24 485.76L540.36 485.76L540.36 485.76L540.36 26.4L540.36 26.4L177.48 26.4L177.48 26.4L177.48 485.76z" stroke="none" fill="#F9F9F9" fill-rule="evenodd" /></g><g clip-path="url(#7)"><g transform="matrix(1.437313 0 0 1.438016 165.84 616.2)"><g transform="matrix(1 0 0 1 0 0)"><image x="0" y="0" xlink:href="img_03.png" width="268" height="121" /></g></g></g><g clip-path="url(#8)"><path transform="matrix(1 0 0 -1 0 780)" d="M177 151.68L482.25 151.68L482.25 151.68L482.14 150.59C 482.14 142.36 488.82 135.68 497.06 135.68C 505.3 135.68 511.98 142.36 511.98 150.59L511.98 150.59L511.87 151.68L511.87 151.68L540 151.68L540 151.68L540 6.1035E-05L540 6.1035E-05L177 6.1035E-05L177 6.1035E-05L177 151.68z" stroke="none" fill="#F9F9F9" fill-rule="evenodd" /></g><g clip-path="url(#9)"></g><path transform="matrix(1 0 0 -1 0 780)" d="M204.12 107.28L467.81 107.28" stroke="#ECECEC" stroke-width="0.72" fill="none" /><g clip-path="url(#10)"></g><g clip-path="url(#11)"></g><g clip-path="url(#12)"></g><g clip-path="url(#13)"></g><g clip-path="url(#14)"></g><g clip-path="url(#15)"></g><g clip-path="url(#16)"></g><g clip-path="url(#17)"></g><g clip-path="url(#18)"></g><g clip-path="url(#19)"></g><g clip-path="url(#20)"></g><g clip-path="url(#21)"></g><g clip-path="url(#22)"></g><g clip-path="url(#23)"></g><g clip-path="url(#24)"></g><g clip-path="url(#25)"></g><g clip-path="url(#26)"></g><g clip-path="url(#27)"></g><g clip-path="url(#28)"></g><g clip-path="url(#29)"></g><g clip-path="url(#30)"></g><g clip-path="url(#31)"></g><g clip-path="url(#32)"></g><g clip-path="url(#33)"></g><g clip-path="url(#34)"></g><g clip-path="url(#35)"></g><g clip-path="url(#36)"></g><g clip-path="url(#37)"></g><g clip-path="url(#38)"></g><g clip-path="url(#39)"></g><g clip-path="url(#40)"></g><g clip-path="url(#41)"></g><g clip-path="url(#42)"></g><g clip-path="url(#43)"></g><g clip-path="url(#44)"></g><g clip-path="url(#45)"></g><g clip-path="url(#46)"></g><g clip-path="url(#47)"><g transform="matrix(1.436496 0 0 1.440433 -7.44 -9.000122)"><g transform="matrix(1 0 0 1 0 0)"><image x="0" y="0" xlink:href="img_04.png" width="137" height="554" /></g></g></g><g clip-path="url(#48)"><path transform="matrix(1 0 0 -1 0 780)" d="M-1.32 6.1035E-05L177.24 6.1035E-05L177.24 6.1035E-05L177.24 780.0001L177.24 780.0001L-1.32 780.0001z" stroke="none" fill="#FFFFFF" fill-rule="evenodd" /></g><path transform="matrix(1 0 0 -1 0 780)" d="M18.24 762.96C 18.24 765.35 20.174 767.28 22.56 767.28C 24.946 767.28 26.88 765.35 26.88 762.96C 26.88 760.57 24.946 758.64 22.56 758.64C 20.174 758.64 18.24 760.57 18.24 762.96z" stroke="none" fill="#BFBFBF" fill-rule="evenodd" /><path transform="matrix(1 0 0 -1 0 780)" d="M31.32 750.6L14.16 750.6L14.16 750.6L14.288 751.62C 15.092 754.81 18.571 757.2 22.74 757.2C 26.909 757.2 30.388 754.81 31.192 751.62z" stroke="none" fill="#BFBFBF" fill-rule="evenodd" /><g clip-path="url(#49)"></g><g clip-path="url(#50)"><path transform="matrix(1 0 0 -1 0 780)" d="M-0.96 384.84L108.72 384.84L108.72 384.84L108.72 414.96L108.72 414.96L-0.96 414.96z" stroke="none" fill="#51B2FA" fill-rule="evenodd" /></g><g clip-path="url(#51)"></g><g clip-path="url(#52)"></g><g clip-path="url(#53)"></g><g clip-path="url(#54)"></g><g clip-path="url(#55)"></g><g clip-path="url(#56)"></g><g clip-path="url(#57)"></g><path transform="matrix(1 0 0 -1 0 780)" d="M11.46 369.42L11.46 358.58" stroke="#51B2FA" stroke-width="3" fill="none" /><g clip-path="url(#58)"></g><path transform="matrix(1 0 0 -1 0 780)" d="M198.72 701.4L461.39 701.4" stroke="#ECECEC" stroke-width="0.72" fill="none" /><g clip-path="url(#59)"><path transform="matrix(1 0 0 -1 0 780)" d="M-1.2 118.92L108.48 118.92L108.48 118.92L108.48 149.04L108.48 149.04L-1.2 149.04z" stroke="none" fill="#51B2FA" fill-rule="evenodd" /></g><g clip-path="url(#60)"></g><g clip-path="url(#61)"></g><g clip-path="url(#62)"><g transform="matrix(0.3304615 0 0 0.3304615 5.64 730.08)"><g transform="matrix(1 0 0 1 0 0)"><image x="0" y="0" xlink:href="img_05.png" width="65" height="65" /></g></g></g><g clip-path="url(#63)"></g><g clip-path="url(#64)"><g transform="matrix(0.3270968 0 0 0.3270968 8.04 673.68)"><g transform="matrix(1 0 0 1 0 0)"><image x="0" y="0" xlink:href="img_06.png" width="62" height="62" /></g></g></g><g clip-path="url(#65)"><g transform="matrix(0.3254237 0 0 0.3254237 7.92 702.48)"><g transform="matrix(1 0 0 1 0 0)"><image x="0" y="0" xlink:href="img_07.png" width="59" height="59" /></g></g></g><g clip-path="url(#66)"></g><g clip-path="url(#67)"></g><g clip-path="url(#68)"></g><g clip-path="url(#69)"></g><g clip-path="url(#70)"></g><g clip-path="url(#71)"></g><g clip-path="url(#72)"></g><g clip-path="url(#73)"></g><g clip-path="url(#74)"></g><g clip-path="url(#75)"></g><g clip-path="url(#76)"></g><g clip-path="url(#77)"></g><g clip-path="url(#78)"></g><g clip-path="url(#79)"></g><g clip-path="url(#80)"></g><g clip-path="url(#81)"></g><g clip-path="url(#82)"></g><g clip-path="url(#83)"></g><g clip-path="url(#84)"></g><g clip-path="url(#85)"></g><g clip-path="url(#86)"></g><g clip-path="url(#87)"></g><g clip-path="url(#88)"></g><g clip-path="url(#89)"></g><g clip-path="url(#90)"></g><g clip-path="url(#91)"></g><g clip-path="url(#92)"></g><g clip-path="url(#93)"></g><g clip-path="url(#94)"></g><g clip-path="url(#95)"></g><g clip-path="url(#96)"></g><g clip-path="url(#97)"></g><g clip-path="url(#98)"></g><g clip-path="url(#99)"></g><g clip-path="url(#100)"></g><g clip-path="url(#101)"></g><g clip-path="url(#102)"></g><g clip-path="url(#103)"></g><g clip-path="url(#104)"></g><g clip-path="url(#105)"></g><g clip-path="url(#106)"></g><g clip-path="url(#107)"></g><g clip-path="url(#108)"></g><g clip-path="url(#109)"></g><g clip-path="url(#110)"></g><g clip-path="url(#111)"></g><g clip-path="url(#112)"></g><g clip-path="url(#113)"></g><g clip-path="url(#114)"></g><g clip-path="url(#115)"></g><g clip-path="url(#116)"></g><g clip-path="url(#117)"></g><g clip-path="url(#118)"></g><g clip-path="url(#119)"></g><g clip-path="url(#120)"></g><g clip-path="url(#121)"></g><g clip-path="url(#122)"></g><g clip-path="url(#123)"></g><g clip-path="url(#124)"></g><g clip-path="url(#125)"></g><g clip-path="url(#126)"></g><g clip-path="url(#127)"></g><g clip-path="url(#128)"></g><g clip-path="url(#129)"></g><g clip-path="url(#130)"></g><g clip-path="url(#131)"></g><g clip-path="url(#132)"></g><g clip-path="url(#133)"></g><g clip-path="url(#134)"></g><g clip-path="url(#135)"></g><g clip-path="url(#136)"></g><g clip-path="url(#137)"></g><g clip-path="url(#138)"></g><g clip-path="url(#139)"></g><g clip-path="url(#140)"></g><g clip-path="url(#141)"></g><g clip-path="url(#142)"></g><g clip-path="url(#143)"></g><g clip-path="url(#144)"></g><path transform="matrix(1 0 0 -1 0 780)" d="M204.6 653.88L272.64 653.88L272.64 653.88L272.64 695.52L272.64 695.52L204.6 695.52z" stroke="none" fill="#51B2FA" fill-rule="evenodd" /><path transform="matrix(1 0 0 -1 0 780)" d="M204.6 653.88L272.64 653.88L272.64 653.88L272.64 695.52L272.64 695.52L204.6 695.52z" stroke="#51B2FA" stroke-width="0.72" fill="none" /><g clip-path="url(#145)"></g><path transform="matrix(1 0 0 -1 0 780)" d="M204.6 653.88L524.4 653.88L524.4 653.88L524.4 695.52L524.4 695.52L204.6 695.52z" stroke="#51B2FA" stroke-width="0.72" fill="none" /><g clip-path="url(#146)"><path transform="matrix(1 0 0 -1 0 780)" d="M-0.96 241.32L108.72 241.32L108.72 241.32L108.72 271.44L108.72 271.44L-0.96 271.44z" stroke="none" fill="#51B2FA" fill-rule="evenodd" /></g><g clip-path="url(#147)"></g><g clip-path="url(#148)"></g><g clip-path="url(#149)"></g><g clip-path="url(#150)"></g><g clip-path="url(#151)"></g><g clip-path="url(#152)"></g><g clip-path="url(#153)"></g><g clip-path="url(#154)"></g><g clip-path="url(#155)"></g><g clip-path="url(#156)"></g><g clip-path="url(#157)"></g><path transform="matrix(1 0 0 -1 0 780)" d="M207.66 427.14L207.91 271.14" stroke="#EEEEEE" stroke-width="1.56" fill="none" /><path transform="matrix(1 0 0 -1 0 780)" d="M203.82 430.92C 203.82 433.01 205.54 434.7 207.66 434.7C 209.78 434.7 211.5 433.01 211.5 430.92C 211.5 428.83 209.78 427.14 207.66 427.14C 205.54 427.14 203.82 428.83 203.82 430.92z" stroke="none" fill="#F9F9F9" fill-rule="evenodd" /><path transform="matrix(1 0 0 -1 0 780)" d="M203.82 430.92C 203.82 433.01 205.54 434.7 207.66 434.7C 209.78 434.7 211.5 433.01 211.5 430.92C 211.5 428.83 209.78 427.14 207.66 427.14C 205.54 427.14 203.82 428.83 203.82 430.92z" stroke="#51B2FA" stroke-width="1.56" fill="none" /><path transform="matrix(1 0 0 -1 0 780)" d="M204.06 267.24C 204.06 269.33 205.78 271.02 207.9 271.02C 210.02 271.02 211.74 269.33 211.74 267.24C 211.74 265.15 210.02 263.46 207.9 263.46C 205.78 263.46 204.06 265.15 204.06 267.24z" stroke="none" fill="#F9F9F9" fill-rule="evenodd" /><path transform="matrix(1 0 0 -1 0 780)" d="M204.06 267.24C 204.06 269.33 205.78 271.02 207.9 271.02C 210.02 271.02 211.74 269.33 211.74 267.24C 211.74 265.15 210.02 263.46 207.9 263.46C 205.78 263.46 204.06 265.15 204.06 267.24z" stroke="#E7E6E6" stroke-width="1.56" fill="none" /><g clip-path="url(#158)"></g><path transform="matrix(1 0 0 -1 0 780)" d="M197.04 445.56L461.41 445.56" stroke="#ECECEC" stroke-width="0.72" fill="none" /><g clip-path="url(#159)"><path transform="matrix(1 0 0 -1 0 780)" d="M-1.2 641.16L178.32 641.16L178.32 641.16L178.32 741.12L178.32 741.12L-1.2 741.12z" stroke="none" fill="#51B2FA" fill-rule="evenodd" /></g><g clip-path="url(#160)"></g><g clip-path="url(#161)"></g><g clip-path="url(#162)"></g><g clip-path="url(#163)"><path transform="matrix(1 0 0 -1 0 780)" d="M-1.32 577.68L108.48 577.68L108.48 577.68L108.48 607.8L108.48 607.8L-1.32 607.8z" stroke="none" fill="#51B2FA" fill-rule="evenodd" /></g><g clip-path="url(#164)"></g><g clip-path="url(#165)"></g><g clip-path="url(#166)"></g><g clip-path="url(#167)"></g><g clip-path="url(#168)"></g><g clip-path="url(#169)"></g><g clip-path="url(#170)"><g transform="matrix(0.7482353 0 0 0.7482353 9.84 220.6801)"><g transform="matrix(1 0 0 1 0 0)"><image x="0" y="0" xlink:href="img_08.png" width="17" height="17" /></g></g></g><g clip-path="url(#171)"><g transform="matrix(0.7482353 0 0 0.7482353 9.84 251.88)"><g transform="matrix(1 0 0 1 0 0)"><image x="0" y="0" xlink:href="img_09.png" width="17" height="17" /></g></g></g><g clip-path="url(#172)"><g transform="matrix(0.7482353 0 0 0.7552941 9.84 281.4)"><g transform="matrix(1 0 0 1 0 0)"><image x="0" y="0" xlink:href="img_10.png" width="17" height="17" /></g></g></g><g clip-path="url(#173)"><g transform="matrix(0.7482353 0 0 0.7482353 9.84 311.52)"><g transform="matrix(1 0 0 1 0 0)"><image x="0" y="0" xlink:href="img_11.png" width="17" height="17" /></g></g></g><g clip-path="url(#174)"></g><g clip-path="url(#175)"></g><g clip-path="url(#176)"></g><g clip-path="url(#177)"></g><g clip-path="url(#178)"></g><g clip-path="url(#179)"></g><g clip-path="url(#180)"></g><g clip-path="url(#181)"></g><g clip-path="url(#182)"></g><g clip-path="url(#183)"></g><path transform="matrix(1 0 0 -1 0 780)" d="M204.6 607.32L272.64 607.32L272.64 607.32L272.64 648.84L272.64 648.84L204.6 648.84z" stroke="none" fill="#51B2FA" fill-rule="evenodd" /><path transform="matrix(1 0 0 -1 0 780)" d="M204.6 607.32L272.64 607.32L272.64 607.32L272.64 648.84L272.64 648.84L204.6 648.84z" stroke="#51B2FA" stroke-width="0.72" fill="none" /><g clip-path="url(#184)"></g><g clip-path="url(#185)"></g><path transform="matrix(1 0 0 -1 0 780)" d="M204.6 607.32L524.4 607.32L524.4 607.32L524.4 648.84L524.4 648.84L204.6 648.84z" stroke="#51B2FA" stroke-width="0.72" fill="none" /><g clip-path="url(#186)"></g><g clip-path="url(#187)"></g><g clip-path="url(#188)"></g><g clip-path="url(#189)"></g><g clip-path="url(#190)"></g><g clip-path="url(#191)"></g><g clip-path="url(#192)"></g><g clip-path="url(#193)"></g><g clip-path="url(#194)"></g><g clip-path="url(#195)"></g><g clip-path="url(#196)"></g><g clip-path="url(#197)"></g><path transform="matrix(1 0 0 -1 0 780)" d="M204.6 576.24L272.64 576.24L272.64 576.24L272.64 602.28L272.64 602.28L204.6 602.28z" stroke="none" fill="#51B2FA" fill-rule="evenodd" /><path transform="matrix(1 0 0 -1 0 780)" d="M204.6 576.24L272.64 576.24L272.64 576.24L272.64 602.28L272.64 602.28L204.6 602.28z" stroke="#51B2FA" stroke-width="0.72" fill="none" /><g clip-path="url(#198)"></g><path transform="matrix(1 0 0 -1 0 780)" d="M204.6 576.24L524.4 576.24L524.4 576.24L524.4 602.28L524.4 602.28L204.6 602.28z" stroke="#51B2FA" stroke-width="0.72" fill="none" /><g clip-path="url(#199)"></g><g clip-path="url(#200)"></g><g clip-path="url(#201)"></g><g clip-path="url(#202)"></g><g clip-path="url(#203)"></g><g clip-path="url(#204)"></g><g clip-path="url(#205)"></g><g clip-path="url(#206)"></g><g clip-path="url(#207)"></g><g clip-path="url(#208)"></g><g clip-path="url(#209)"></g><g clip-path="url(#210)"></g><g clip-path="url(#211)"></g><g clip-path="url(#212)"></g><g clip-path="url(#213)"></g><g clip-path="url(#214)"></g><g clip-path="url(#215)"></g><g clip-path="url(#216)"></g><path transform="matrix(1 0 0 -1 0 780)" d="M204.6 498.6L272.64 498.6L272.64 498.6L272.64 540.24L272.64 540.24L204.6 540.24z" stroke="none" fill="#51B2FA" fill-rule="evenodd" /><path transform="matrix(1 0 0 -1 0 780)" d="M204.6 498.6L272.64 498.6L272.64 498.6L272.64 540.24L272.64 540.24L204.6 540.24z" stroke="#51B2FA" stroke-width="0.72" fill="none" /><g clip-path="url(#217)"></g><path transform="matrix(1 0 0 -1 0 780)" d="M204.6 498.6L524.4 498.6L524.4 498.6L524.4 540.24L524.4 540.24L204.6 540.24z" stroke="#51B2FA" stroke-width="0.72" fill="none" /><g clip-path="url(#218)"></g><g clip-path="url(#219)"></g><g clip-path="url(#220)"></g><g clip-path="url(#221)"></g><g clip-path="url(#222)"></g><g clip-path="url(#223)"></g><g clip-path="url(#224)"></g><g clip-path="url(#225)"></g><g clip-path="url(#226)"></g><path transform="matrix(1 0 0 -1 0 780)" d="M204.6 545.28L272.64 545.28L272.64 545.28L272.64 571.2L272.64 571.2L204.6 571.2z" stroke="none" fill="#51B2FA" fill-rule="evenodd" /><path transform="matrix(1 0 0 -1 0 780)" d="M204.6 545.28L272.64 545.28L272.64 545.28L272.64 571.2L272.64 571.2L204.6 571.2z" stroke="#51B2FA" stroke-width="0.72" fill="none" /><g clip-path="url(#227)"></g><path transform="matrix(1 0 0 -1 0 780)" d="M204.6 545.28L524.4 545.28L524.4 545.28L524.4 571.2L524.4 571.2L204.6 571.2z" stroke="#51B2FA" stroke-width="0.72" fill="none" /><g clip-path="url(#228)"></g><g clip-path="url(#229)"></g><g clip-path="url(#230)"></g><g clip-path="url(#231)"></g><g clip-path="url(#232)"></g><g clip-path="url(#233)"></g><g clip-path="url(#234)"></g><g clip-path="url(#235)"></g><g clip-path="url(#236)"></g><g clip-path="url(#237)"></g><g clip-path="url(#238)"></g><g clip-path="url(#239)"></g><g clip-path="url(#240)"></g><g clip-path="url(#241)"></g><g clip-path="url(#242)"></g><g clip-path="url(#243)"></g><g clip-path="url(#244)"></g><g clip-path="url(#245)"></g><g clip-path="url(#246)"></g><g clip-path="url(#247)"></g><g clip-path="url(#248)"></g><g clip-path="url(#249)"></g><g clip-path="url(#250)"></g><g clip-path="url(#251)"></g><g clip-path="url(#252)"></g><g clip-path="url(#253)"></g><g clip-path="url(#254)"></g><g clip-path="url(#255)"></g><g clip-path="url(#256)"></g><g clip-path="url(#257)"></g><g clip-path="url(#258)"></g><g clip-path="url(#259)"></g><g clip-path="url(#260)"></g><g clip-path="url(#261)"></g><g clip-path="url(#262)"></g><g clip-path="url(#263)"></g><g clip-path="url(#264)"></g><g clip-path="url(#265)"></g><g clip-path="url(#266)"></g><g clip-path="url(#267)"></g><g clip-path="url(#268)"></g><g clip-path="url(#269)"></g><g clip-path="url(#270)"></g><g clip-path="url(#271)"></g><g clip-path="url(#272)"></g><g clip-path="url(#273)"></g><g clip-path="url(#274)"></g></g></g></svg>